<svg xmlns="http://www.w3.org/2000/svg" width="512" height="512" viewBox="0 0 256 256">
  <defs>
    <filter id="glow" x="-20%" y="-20%" width="140%" height="140%">
      <feGaussianBlur stdDeviation="5" result="b"/>
      <feMerge><feMergeNode in="b"/><feMergeNode in="b"/><feMergeNode in="SourceGraphic"/></feMerge>
    </filter>
  </defs>
  <g fill="none" stroke-linecap="square" stroke-linejoin="miter" filter="url(#glow)"><path d="M60 28 H200 L228 56 V196 L196 228 H56 L28 200 V60 Z" stroke="#b44cff" stroke-width="4"/><path d="M100 28 V36" stroke="#b44cff" stroke-width="3"/><path d="M114 28 V36" stroke="#b44cff" stroke-width="3"/><path d="M142 28 V36" stroke="#b44cff" stroke-width="3"/><path d="M156 28 V36" stroke="#b44cff" stroke-width="3"/><path d="M100 220 V228" stroke="#b44cff" stroke-width="3"/><path d="M114 220 V228" stroke="#b44cff" stroke-width="3"/><path d="M142 220 V228" stroke="#b44cff" stroke-width="3"/><path d="M156 220 V228" stroke="#b44cff" stroke-width="3"/><path d="M16 44 V16 H44" stroke="#ff2a6d" stroke-width="4"/><path d="M212 240 H240 V212" stroke="#ff2a6d" stroke-width="4"/><path d="M96 16 H160" stroke="#ff2a6d" stroke-width="4"/><path d="M96 240 H160" stroke="#ff2a6d" stroke-width="4"/><path d="M100 116 V90 L116 74 H140 L156 90 V116" stroke="#b44cff" stroke-width="10"/><path d="M84 116 H172 L184 128 V184 L172 196 H84 L72 184 V128 Z" stroke="#b44cff" stroke-width="10"/><path d="M128 144 V168" stroke="#b44cff" stroke-width="10"/></g>
</svg>
